<svg width="32" height="32" viewBox="0 0 32 32" fill="none" xmlns="http://www.w3.org/2000/svg">
<g id="Logo 1" clip-path="url(#clip0_314_314)">
<g id="Artboard">
<path id="Oval" d="M30.75 16C30.75 24.1462 24.1462 30.75 16 30.75C7.8538 30.75 1.25 24.1462 1.25 16C1.25 7.8538 7.8538 1.25 16 1.25C24.1462 1.25 30.75 7.8538 30.75 16Z" stroke="#303030" stroke-width="2.5"/>
<path id="Path-3" fill-rule="evenodd" clip-rule="evenodd" d="M8.96243 16.1659C12.7205 14.4724 15.2265 13.356 16.4804 12.8166C20.0604 11.2765 20.8043 11.0089 21.2892 11.0001C21.3959 10.9982 21.6343 11.0255 21.7887 11.1551C21.9192 11.2646 21.955 11.4124 21.9722 11.5162C21.9894 11.62 22.0108 11.8564 21.9938 12.0411C21.7998 14.1494 20.9603 19.2657 20.5332 21.6271C20.3525 22.6263 19.9967 22.9613 19.6522 22.9941C18.9036 23.0653 18.3351 22.4823 17.6101 21.9908C16.4755 21.2215 15.8345 20.7426 14.7332 19.992C13.4604 19.1245 14.2855 18.6477 15.0108 17.8685C15.2006 17.6646 18.4991 14.5615 18.5629 14.28C18.5709 14.2448 18.5783 14.1136 18.503 14.0443C18.4276 13.975 18.3163 13.9987 18.236 14.0175C18.1223 14.0442 16.3097 15.2833 12.7984 17.7348C12.2839 18.1002 11.8179 18.2783 11.4004 18.2689C10.9401 18.2586 10.0547 17.9998 9.39648 17.7785C8.58916 17.507 7.94752 17.3635 8.00339 16.9026C8.03249 16.6625 8.35217 16.4169 8.96243 16.1659Z" fill="#303030"/>
</g>
</g>
<defs>
<clipPath id="clip0_314_314">
<rect width="32" height="32" fill="white"/>
</clipPath>
</defs>
</svg>
